<svg width="64" height="64" viewBox="0 0 64 64" fill="none" xmlns="http://www.w3.org/2000/svg">
<path d="M58.3409 13.491C58.2973 13.3404 58.2139 13.2043 58.0995 13.0969C57.9851 12.9896 57.844 12.915 57.6909 12.881L52.3284 11.6695L51.1169 6.30703C51.0825 6.15432 51.0077 6.01365 50.9003 5.8997C50.793 5.78576 50.657 5.70271 50.5067 5.65924C50.3563 5.61577 50.197 5.61346 50.0454 5.65256C49.8938 5.69166 49.7555 5.77074 49.6449 5.88153L43.4774 12.05C38.2584 8.90073 32.0671 7.77063 26.072 8.873C20.077 9.97537 14.6927 13.234 10.9353 18.0338C7.178 22.8337 5.30745 28.8428 5.67672 34.9272C6.04598 41.0116 8.62951 46.7504 12.9397 51.0607C17.25 55.3709 22.9888 57.9544 29.0732 58.3237C35.1576 58.693 41.1667 56.8224 45.9666 53.0651C50.7665 49.3077 54.0251 43.9235 55.1274 37.9284C56.2298 31.9333 55.0997 25.7421 51.9504 20.523L58.1204 14.353C58.2308 14.2422 58.3095 14.1037 58.3483 13.9521C58.3871 13.8005 58.3845 13.6413 58.3409 13.491ZM53.7879 33.4185C53.7872 38.5269 52.1007 43.4922 48.9901 47.5442C45.8795 51.5963 41.5187 54.5086 36.5841 55.8294C31.6494 57.1501 26.4169 56.8055 21.698 54.849C16.9792 52.8925 13.038 49.4334 10.4857 45.0084C7.93336 40.5834 6.91265 35.4398 7.58189 30.3755C8.25112 25.3112 10.5729 20.6093 14.187 16.9992C17.8012 13.3891 22.5057 11.0725 27.5707 10.4089C32.6358 9.74534 37.7782 10.7718 42.2004 13.329L39.3679 16.1615C39.3436 16.1892 39.321 16.2185 39.3004 16.249C35.2105 14.1668 30.512 13.6117 26.0495 14.6834C21.5869 15.7551 17.653 18.3835 14.9548 22.0959C12.2565 25.8084 10.9709 30.3615 11.329 34.9369C11.6872 39.5124 13.6655 43.81 16.9085 47.0575C20.1515 50.3049 24.4465 52.2891 29.0215 52.6534C33.5964 53.0178 38.1513 51.7384 41.8674 49.0452C45.5835 46.352 48.2172 42.4216 49.295 37.9606C50.3728 33.4995 49.824 28.8003 47.7474 24.7075C47.7796 24.6848 47.8101 24.6599 47.8389 24.633L50.6714 21.8005C52.7169 25.3305 53.7921 29.3388 53.7879 33.4185ZM45.6709 24.5615C47.8198 28.2298 48.5582 32.5555 47.748 36.729C46.9378 40.9024 44.6346 44.6376 41.2693 47.2355C37.904 49.8334 33.7073 51.1159 29.4647 50.843C25.2221 50.5701 21.2244 48.7605 18.2196 45.7529C15.2149 42.7453 13.4092 38.7458 13.1404 34.5029C12.8715 30.26 14.1581 26.0646 16.7592 22.7018C19.3603 19.3391 23.0977 17.0394 27.272 16.2332C31.4462 15.4271 35.7712 16.1696 39.4374 18.322L40.3589 22.404L39.4749 23.288C36.8387 20.9731 33.4056 19.7741 29.9014 19.9445C26.3972 20.1149 23.0966 21.6415 20.6975 24.2013C18.2984 26.7611 16.9888 30.1536 17.0456 33.6615C17.1025 37.1693 18.5213 40.5176 21.002 42.9984C23.4828 45.4792 26.8311 46.898 30.339 46.9548C33.8468 47.0116 37.2393 45.702 39.7992 43.3029C42.359 40.9038 43.8855 37.6032 44.0559 34.0991C44.2263 30.5949 43.0273 27.1617 40.7124 24.5255L41.5964 23.6415L45.6709 24.5615ZM34.3444 33.4185C34.3475 34.255 34.0728 35.0688 33.5634 35.7323C33.054 36.3957 32.3388 36.8713 31.53 37.0844C30.7211 37.2975 29.8644 37.236 29.0942 36.9096C28.3241 36.5832 27.6841 36.0103 27.2747 35.2809C26.8653 34.5515 26.7096 33.7068 26.8322 32.8794C26.9547 32.0519 27.3484 31.2886 27.9516 30.7091C28.5548 30.1296 29.3333 29.7668 30.165 29.6775C30.9967 29.5883 31.8345 29.7777 32.5469 30.216L29.9629 32.8C29.8793 32.8808 29.8127 32.9773 29.7669 33.0841C29.721 33.1909 29.6969 33.3057 29.6959 33.4219C29.6949 33.538 29.7171 33.6533 29.7611 33.7608C29.8051 33.8683 29.8701 33.966 29.9523 34.0481C30.0345 34.1303 30.1322 34.1952 30.2397 34.2392C30.3473 34.2832 30.4625 34.3053 30.5787 34.3042C30.6949 34.3032 30.8097 34.2791 30.9164 34.2332C31.0232 34.1873 31.1197 34.1206 31.2004 34.037L33.7844 31.453C34.1502 32.0434 34.3442 32.724 34.3444 33.4185ZM33.8064 28.9565C32.6791 28.14 31.2854 27.7781 29.9032 27.9432C28.521 28.1082 27.2518 28.788 26.3484 29.8471C25.445 30.9061 24.9739 32.2667 25.0288 33.6576C25.0837 35.0485 25.6608 36.3677 26.6449 37.3522C27.629 38.3367 28.9479 38.9142 30.3388 38.9697C31.7297 39.0252 33.0904 38.5546 34.1499 37.6517C35.2093 36.7487 35.8896 35.4797 36.0552 34.0976C36.2208 32.7155 35.8595 31.3217 35.0434 30.194L39.4724 25.765C41.4569 28.0705 42.4704 31.0556 42.2999 34.0927C42.1294 37.1299 40.7883 39.9828 38.5582 42.0517C36.3282 44.1207 33.383 45.2446 30.3416 45.1874C27.3002 45.1301 24.3994 43.8961 22.2488 41.7447C20.0983 39.5932 18.8654 36.6919 18.8094 33.6505C18.7533 30.609 19.8785 27.6643 21.9483 25.4351C24.0182 23.2059 26.8716 21.8659 29.9088 21.6967C32.9461 21.5274 35.9307 22.5421 38.2354 24.5275L33.8064 28.9565ZM50.2284 19.7685L46.9444 23.052L46.4519 22.941L46.4329 22.9365L42.0504 21.95L40.9459 17.0585L49.7619 8.24103L50.7454 12.594C50.7819 12.7554 50.8633 12.9031 50.9803 13.0201C51.0973 13.1371 51.245 13.2186 51.4064 13.255L55.7594 14.2385L50.2284 19.7685Z" fill="#FBEE14"/>
</svg>
