<svg width="64" height="64" viewBox="0 0 64 64" fill="none" xmlns="http://www.w3.org/2000/svg">
<g clip-path="url(#clip0)">
<path d="M46.9279 29.7629L44.5558 28.3934V19.0636C44.5558 17.8159 44.0674 16.6403 43.1807 15.7535C42.2939 14.8668 41.1183 14.3784 39.8708 14.3785C39.8707 14.3785 39.8707 14.3785 39.8706 14.3785C38.9282 14.3785 38.0268 14.6571 37.2602 15.1758C37.0306 14.6773 36.7112 14.2176 36.3106 13.817C35.4238 12.9303 34.2482 12.4419 33.0006 12.4419C31.1131 12.4419 29.4829 13.5635 28.7414 15.1754C27.9949 14.6724 27.0962 14.3785 26.1303 14.3785C25.3416 14.3785 24.5979 14.5743 23.9452 14.92V4.68601C23.9452 2.10263 21.8436 0.00100708 19.2602 0.00100708C16.6768 0.00100708 14.5752 2.10263 14.5752 4.68601V38.6456C14.5752 43.4413 15.4078 46.3726 16.2129 49.2075C16.9121 51.6689 17.5723 53.9939 17.5723 57.438V62.7509C17.5723 63.0824 17.7039 63.4003 17.9384 63.6348C18.1728 63.8691 18.4908 64.0009 18.8223 64.0009H43.3062C43.9966 64.0009 44.5562 63.4411 44.5562 62.7509V51.8486L49.0536 36.7301C50.0086 34.1118 49.0608 30.9943 46.9279 29.7629ZM39.8707 16.8785C39.8707 16.8785 39.8708 16.8785 39.8707 16.8785C40.4507 16.8785 40.9984 17.1068 41.4129 17.5214C41.8276 17.9359 42.0559 18.4838 42.0559 19.0638V26.95L38.4502 24.8683C38.2022 24.7251 37.9462 24.6088 37.6857 24.5154V19.0638C37.6857 19.0635 37.6857 19.0634 37.6857 19.0631C37.6858 18.4834 37.9142 17.9358 38.3286 17.5214C38.7431 17.1068 39.2907 16.8785 39.8707 16.8785ZM30.8153 17.1269C30.8153 15.922 31.7956 14.9419 33.0004 14.9419C33.5803 14.9419 34.1281 15.1703 34.5427 15.5849C34.9573 15.9995 35.1856 16.5471 35.1856 17.1271V19.0638V19.065V24.3355C33.9117 24.5921 32.7493 25.372 32.0501 26.5831C30.8004 28.7475 31.5082 31.4806 33.6961 32.9401C34.1172 33.2211 34.5971 33.5531 35.0926 33.9054C34.8228 34.8105 33.9849 35.465 33.0003 35.465C31.7959 35.465 30.8161 34.4856 30.8152 33.2815C30.8152 33.281 30.8152 33.2804 30.8152 33.2799L30.8151 19.0635V17.1269H30.8153ZM46.6957 35.8978C46.6857 35.9245 46.6767 35.9515 46.6686 35.9786L42.1078 51.31C42.0734 51.4258 42.0559 51.5458 42.0559 51.6665V61.5008H20.0719V57.4379C20.0719 53.6456 19.3324 51.0421 18.6174 48.5244C17.8591 45.8541 17.0748 43.093 17.0748 38.6455V4.68588C17.0748 3.48101 18.0551 2.50088 19.2598 2.50088C20.4646 2.50088 21.4448 3.48113 21.4448 4.68588V19.0635V20.5463C21.4448 21.2365 22.0044 21.7963 22.6948 21.7963C23.3852 21.7963 23.9448 21.2365 23.9448 20.5463V19.0635C23.9448 17.8586 24.9251 16.8785 26.1299 16.8785C27.3348 16.8785 28.3151 17.8588 28.3151 19.0635L28.3152 33.2775C28.3152 33.2783 28.3151 33.2791 28.3151 33.2799V33.2814C28.3141 34.4856 27.3342 35.465 26.1299 35.465C24.9251 35.465 23.9448 34.4848 23.9448 33.2799V31.7963C23.9448 31.106 23.3852 30.5463 22.6948 30.5463C22.0044 30.5463 21.4448 31.106 21.4448 31.7963V33.2799C21.4448 35.8633 23.5466 37.965 26.1299 37.965C27.4861 37.965 28.7088 37.3853 29.5651 36.4614C30.1697 37.1136 30.9567 37.5944 31.8448 37.8204C30.0078 39.6151 28.0054 41.6378 26.7442 43.9959C25.0923 47.0843 25.1083 50.1288 26.7918 53.0448C27.1369 53.6425 27.9013 53.8474 28.4993 53.5023C29.0972 53.157 29.3021 52.3926 28.9568 51.7948C26.3319 47.2485 29.5188 43.5779 33.9577 39.2516C35.3683 37.8769 36.5891 36.687 37.2834 35.5343C37.6483 35.8204 37.9842 36.0938 38.2694 36.3398C38.7923 36.7908 39.5816 36.7324 40.0324 36.2096C40.4833 35.6869 40.4252 34.8976 39.9023 34.4466C38.5992 33.3226 36.4909 31.7998 35.0834 30.8605C34.0066 30.142 33.6331 28.8405 34.2148 27.8329C34.8173 26.7894 36.1563 26.4304 37.1998 27.033L45.6777 31.9278C46.7737 32.5606 47.2492 34.4155 46.6957 35.8978Z" fill="#FBEE14"/>
<path d="M22.6953 27.4208C23.3857 27.4208 23.9453 26.861 23.9453 26.1708V26.1698C23.9453 25.4795 23.3857 24.9203 22.6953 24.9203C22.0049 24.9203 21.4453 25.4804 21.4453 26.1708C21.4453 26.8611 22.0049 27.4208 22.6953 27.4208Z" fill="#FBEE14"/>
</g>
<defs>
<clipPath id="clip0">
<rect width="64" height="64" fill="white"/>
</clipPath>
</defs>
</svg>
