<svg width="64" height="64" viewBox="0 0 64 64" fill="none" xmlns="http://www.w3.org/2000/svg">
<g clip-path="url(#clip0)">
<path d="M49.0652 11.7357C49.0651 11.7357 49.0648 11.7357 49.0647 11.7357C47.2983 11.7339 45.8669 10.3024 45.865 8.53611C45.865 7.94712 45.3875 7.46957 44.7985 7.46957C44.2095 7.46957 43.732 7.94712 43.732 8.53611C43.7301 10.3024 42.2987 11.7339 40.5324 11.7357C39.9434 11.7357 39.4658 12.2133 39.4658 12.8023C39.4658 13.3913 39.9434 13.8688 40.5324 13.8688C42.2987 13.8707 43.7301 15.3021 43.732 17.0684C43.732 17.6574 44.2095 18.135 44.7985 18.135C45.3875 18.135 45.865 17.6574 45.865 17.0684C45.8669 15.3021 47.2983 13.8707 49.0647 13.8688C49.6535 13.8689 50.1311 13.3917 50.1312 12.8028C50.1312 12.8027 50.1312 12.8024 50.1312 12.8023C50.1313 12.2134 49.6541 11.7359 49.0652 11.7357ZM44.7985 13.872C44.4941 13.4669 44.1341 13.1068 43.7289 12.8024C44.1341 12.498 44.4941 12.1379 44.7985 11.7328C45.1029 12.1379 45.463 12.498 45.8681 12.8024C45.463 13.1066 45.1029 13.4669 44.7985 13.872Z" fill="#FBEE14"/>
<path d="M23.468 11.7357C21.7017 11.7339 20.2702 10.3024 20.2684 8.53611C20.2684 7.94712 19.7908 7.46957 19.2018 7.46957C18.6128 7.46957 18.1353 7.94712 18.1353 8.53611C18.1334 10.3024 16.702 11.7339 14.9357 11.7357C14.3467 11.7357 13.8691 12.2133 13.8691 12.8023C13.8691 13.3913 14.3467 13.8688 14.9357 13.8688C16.702 13.8707 18.1334 15.3021 18.1353 17.0684C18.1353 17.6574 18.6128 18.135 19.2018 18.135C19.7908 18.135 20.2684 17.6574 20.2684 17.0684C20.2702 15.3021 21.7017 13.8707 23.468 13.8688C24.057 13.8688 24.5345 13.3913 24.5345 12.8023C24.5345 12.2133 24.057 11.7357 23.468 11.7357ZM19.2018 13.872C18.8975 13.4669 18.5374 13.1068 18.1322 12.8024C18.5374 12.498 18.8975 12.1379 19.2018 11.7328C19.5062 12.1379 19.8663 12.498 20.2714 12.8024C19.8663 13.1066 19.5062 13.4669 19.2018 13.872Z" fill="#FBEE14"/>
<path d="M36.2663 4.26997C34.5 4.2681 33.0686 2.83667 33.0667 1.07035C33.0668 0.48149 32.5896 0.00394804 32.0007 0.00381473C32.0006 0.00381473 32.0003 0.00381473 32.0002 0.00381473C31.4113 0.00368141 30.9338 0.480957 30.9336 1.06982C30.9336 1.06995 30.9336 1.07022 30.9336 1.07035C30.9318 2.83667 29.5003 4.2681 27.734 4.26997C27.145 4.26997 26.6675 4.74751 26.6675 5.3365C26.6675 5.9255 27.145 6.40304 27.734 6.40304C29.5003 6.40491 30.9318 7.83633 30.9336 9.60265C30.9336 10.1916 31.4112 10.6692 32.0002 10.6692C32.5892 10.6692 33.0667 10.1916 33.0667 9.60265C33.0686 7.83633 34.5 6.40491 36.2663 6.40304C36.8553 6.40304 37.3328 5.9255 37.3328 5.3365C37.3328 4.74751 36.8553 4.26997 36.2663 4.26997ZM32.0002 6.40624C31.6958 6.00109 31.3357 5.641 30.9306 5.33664C31.3357 5.03227 31.6958 4.67218 32.0002 4.26703C32.3045 4.67218 32.6646 5.03227 33.0698 5.33664C32.6646 5.64087 32.3045 6.00109 32.0002 6.40624Z" fill="#FBEE14"/>
<path d="M32.0002 16.0019C22.5757 16.0019 14.9355 23.642 14.9355 33.0665C14.9355 42.491 22.5757 50.1311 32.0002 50.1311C41.4202 50.1203 49.054 42.4866 49.0648 33.0665C49.0648 23.642 41.4246 16.0019 32.0002 16.0019ZM32.0002 47.998C23.7537 47.998 17.0686 41.313 17.0686 33.0665C17.0686 24.82 23.7537 18.135 32.0002 18.135C40.2466 18.135 46.9317 24.82 46.9317 33.0665C46.9223 41.3091 40.2428 47.9888 32.0002 47.998Z" fill="#FBEE14"/>
<path d="M21.335 32H23.468C23.4734 27.29 27.2904 23.473 32.0003 23.4677V21.3346C26.1128 21.3414 21.3416 26.1124 21.335 32Z" fill="#FBEE14"/>
<path d="M63.9961 49.5948L63.9783 30.7517C63.9753 27.8151 62.1494 25.6007 59.7299 25.6007H59.5258C57.171 25.7266 55.2827 27.594 55.1305 29.9471L52.5079 43.4434C51.6124 43.3099 50.6998 43.5268 49.9603 44.049L41.9113 49.7098C41.0472 50.3192 40.5329 51.3104 40.5322 52.3678V62.9296C40.5321 63.5184 41.0094 63.996 41.5982 63.9961C41.5984 63.9961 41.5986 63.9961 41.5988 63.9961H52.2641C52.853 63.9962 53.3306 63.519 53.3307 62.9301C53.3307 62.93 53.3307 62.9297 53.3307 62.9296V61.5803L60.3528 57.1095C62.723 55.3511 64.0835 52.5447 63.9961 49.5948ZM59.1852 55.3242L51.6913 60.095C51.3839 60.2909 51.1977 60.6302 51.1976 60.9949V61.863H42.6653V52.3678C42.6654 52.0042 42.8422 51.6635 43.1392 51.4538L51.1872 45.7935C51.8158 45.3516 52.6836 45.503 53.1255 46.1316C53.2902 46.3658 53.3785 46.6451 53.3785 46.9314C53.3837 47.2705 53.2623 47.5993 53.0379 47.8537L46.2439 53.5816L47.6187 55.2126L54.4793 49.4237C55.8532 48.0498 55.856 45.8231 54.4856 44.4457L57.2353 30.2818C57.2663 28.9839 58.2385 27.9025 59.5257 27.7337H59.7298C60.9338 27.7337 61.8431 29.0319 61.8451 30.7536L61.8629 49.5956C61.9537 51.8269 60.9551 53.9629 59.1852 55.3242Z" fill="#FBEE14"/>
<path d="M22.088 49.7093L14.0401 44.049C13.3003 43.5271 12.388 43.3102 11.4925 43.4434L8.88136 30.0195C8.75057 27.64 6.85374 25.7381 4.47456 25.6007H4.27045C1.85101 25.6007 0.0250964 27.815 0.0220301 30.7517L0.00429895 49.5958C-0.0815573 52.5543 1.28774 55.367 3.66946 57.1241L10.6697 61.5804V62.9297C10.6695 63.5186 11.1468 63.9961 11.7357 63.9962C11.7358 63.9962 11.7361 63.9962 11.7362 63.9962H22.4016C22.9905 63.9964 23.468 63.5191 23.4681 62.9302C23.4681 62.9301 23.4681 62.9298 23.4681 62.9297V52.3679C23.4673 51.31 22.9527 50.3187 22.088 49.7093ZM21.3351 61.863H12.8028V60.9949C12.8026 60.6302 12.6165 60.291 12.3091 60.095L4.83705 55.3387C3.0554 53.9788 2.04805 51.8362 2.13737 49.5968L2.15511 30.7537C2.15724 29.0321 3.06646 27.7338 4.27045 27.7338H4.47456C5.78507 27.9165 6.76428 29.0311 6.77641 30.3543L9.51462 44.4458C8.14425 45.8232 8.14705 48.0499 9.52088 49.4239C9.56008 49.4628 9.60221 49.4987 9.64687 49.5312L17.5074 55.2592L18.7635 53.5354L10.979 47.8631C10.4646 47.2921 10.5105 46.4124 11.0814 45.898C11.5636 45.4635 12.2821 45.4202 12.8132 45.7936L20.86 51.4534C21.1576 51.6628 21.3348 52.004 21.3351 52.3678V61.863Z" fill="#FBEE14"/>
</g>
<defs>
<clipPath id="clip0">
<rect width="64" height="64" fill="white"/>
</clipPath>
</defs>
</svg>
