<svg width="19" height="19" viewBox="0 0 19 19" fill="none" xmlns="http://www.w3.org/2000/svg">
<path d="M13.3542 1.79098C14.3499 1.79395 15.304 2.19082 16.0081 2.8949C16.7122 3.59899 17.1091 4.55308 17.112 5.5488V13.0637C17.1091 14.0594 16.7122 15.0135 16.0081 15.7176C15.304 16.4216 14.3499 16.8185 13.3542 16.8215H5.83936C4.84364 16.8185 3.88955 16.4216 3.18546 15.7176C2.48137 15.0135 2.08451 14.0594 2.08153 13.0637V5.5488C2.08451 4.55308 2.48137 3.59899 3.18546 2.8949C3.88955 2.19082 4.84364 1.79395 5.83936 1.79098H13.3542ZM13.3542 0.288086H5.83936C2.94591 0.288086 0.578644 2.65535 0.578644 5.5488V13.0637C0.578644 15.9571 2.94591 18.3244 5.83936 18.3244H13.3542C16.2477 18.3244 18.6149 15.9571 18.6149 13.0637V5.5488C18.6149 2.65535 16.2477 0.288086 13.3542 0.288086Z" fill="black"/>
<path d="M14.4815 5.54995C14.2585 5.54995 14.0406 5.48384 13.8552 5.35997C13.6698 5.2361 13.5253 5.06005 13.44 4.85407C13.3547 4.64809 13.3324 4.42143 13.3759 4.20276C13.4194 3.98409 13.5267 3.78323 13.6844 3.62558C13.842 3.46793 14.0429 3.36057 14.2616 3.31707C14.4802 3.27357 14.7069 3.2959 14.9129 3.38122C15.1189 3.46654 15.2949 3.61102 15.4188 3.7964C15.5426 3.98178 15.6088 4.19973 15.6088 4.42268C15.6091 4.5708 15.5801 4.71753 15.5236 4.85444C15.4671 4.99135 15.384 5.11575 15.2793 5.22049C15.1746 5.32523 15.0502 5.40825 14.9132 5.46479C14.7763 5.52133 14.6296 5.55027 14.4815 5.54995Z" fill="black"/>
<path d="M9.59675 6.30025C10.1913 6.30025 10.7725 6.47656 11.2669 6.80689C11.7613 7.13721 12.1466 7.60671 12.3741 8.15602C12.6016 8.70533 12.6612 9.30977 12.5452 9.89291C12.4292 10.4761 12.1429 11.0117 11.7224 11.4321C11.302 11.8526 10.7664 12.1389 10.1832 12.2549C9.60008 12.3709 8.99564 12.3113 8.44633 12.0838C7.89703 11.8563 7.42752 11.4709 7.0972 10.9766C6.76688 10.4822 6.59057 9.901 6.59057 9.30644C6.59142 8.50941 6.90842 7.74527 7.472 7.18169C8.03558 6.6181 8.79972 6.30111 9.59675 6.30025ZM9.59675 4.79736C8.70494 4.79736 7.83316 5.06182 7.09164 5.55728C6.35013 6.05274 5.77219 6.75696 5.43091 7.58089C5.08963 8.40481 5.00034 9.31144 5.17432 10.1861C5.3483 11.0608 5.77775 11.8642 6.40836 12.4948C7.03896 13.1254 7.8424 13.5549 8.71707 13.7289C9.59175 13.9029 10.4984 13.8136 11.3223 13.4723C12.1462 13.131 12.8504 12.5531 13.3459 11.8115C13.8414 11.07 14.1058 10.1982 14.1058 9.30644C14.1058 8.11056 13.6308 6.96366 12.7851 6.11804C11.9395 5.27243 10.7926 4.79736 9.59675 4.79736Z" fill="black"/>
</svg>