<svg width="19" height="19" viewBox="0 0 19 19" fill="none" xmlns="http://www.w3.org/2000/svg">
<path d="M17.0757 0.288086H2.02301C1.20051 0.288086 0.481873 0.879902 0.481873 1.69274V16.7788C0.481873 17.5961 1.20051 18.3244 2.02301 18.3244H17.0712C17.8982 18.3244 18.5182 17.5912 18.5182 16.7788V1.69274C18.523 0.879902 17.8982 0.288086 17.0757 0.288086ZM6.07272 15.3222H3.48886V7.28842H6.07272V15.3222ZM4.87017 6.06695H4.85165C4.02471 6.06695 3.48926 5.45138 3.48926 4.68081C3.48926 3.89615 4.03881 3.29507 4.88426 3.29507C5.72971 3.29507 6.24704 3.89172 6.26556 4.68081C6.26516 5.45138 5.72971 6.06695 4.87017 6.06695ZM15.516 15.3222H12.9321V10.9295C12.9321 9.87711 12.5561 9.15808 11.6213 9.15808C10.9071 9.15808 10.4844 9.64119 10.2964 10.1118C10.2259 10.2809 10.207 10.5112 10.207 10.7463V15.3222H7.62312V7.28842H10.207V8.40643C10.583 7.87098 11.1704 7.10041 12.5372 7.10041C14.2333 7.10041 15.5164 8.21842 15.5164 10.6288L15.516 15.3222Z" fill="black"/>
</svg>
