<svg width="59" height="49" viewBox="0 0 59 49" fill="none" xmlns="http://www.w3.org/2000/svg">
	<path d="M29.5707 16.4592C29.3349 16.5063 29.0519 16.5535 28.8161 16.6478C28.203 16.8365 27.6371 17.1194 27.1183 17.4967C26.9296 17.6382 26.741 17.7797 26.5995 17.9212C26.3165 18.2041 26.0807 18.5343 25.9392 18.9587C25.7977 19.2888 25.6563 19.6661 25.5619 19.9962C25.7506 19.9019 25.9864 19.8076 26.175 19.7133C29.0519 18.4399 31.8817 17.3081 34.6171 16.3649C32.9193 16.0347 31.2686 16.1762 29.5707 16.4592ZM29.5707 16.4592C29.3349 16.5063 29.0519 16.5535 28.8161 16.6478C28.203 16.8365 27.6371 17.1194 27.1183 17.4967C26.9296 17.6382 26.741 17.7797 26.5995 17.9212C26.3165 18.2041 26.0807 18.5343 25.9392 18.9587C25.7977 19.2888 25.6563 19.6661 25.5619 19.9962C25.7506 19.9019 25.9864 19.8076 26.175 19.7133C29.0519 18.4399 31.8817 17.3081 34.6171 16.3649C32.9193 16.0347 31.2686 16.1762 29.5707 16.4592ZM48.6243 14.054C48.5771 13.9597 48.5771 13.8653 48.53 13.7239C48.4356 13.3466 48.2942 12.9693 48.1055 12.6392C47.5396 11.413 46.6435 10.4698 45.4644 9.66804C43.295 8.30038 40.8425 7.68729 38.2958 7.49865C34.9944 7.26285 31.6459 7.21568 28.3445 7.49865C25.0903 7.73445 21.9776 8.44186 19.1007 9.99817C16.9784 11.1772 15.3749 12.7807 14.4316 15.0915C13.4884 17.4496 12.5923 19.8076 11.7906 22.1656C11.0831 24.2407 10.47 26.3629 9.90406 28.4852C9.66825 29.4284 9.43244 30.3716 9.24379 31.362C9.00798 32.541 8.77217 33.72 8.63068 34.9462C8.44203 36.1252 8.34771 37.3042 8.53636 38.5304C8.67784 39.285 8.86649 39.9924 9.19663 40.6055C9.38528 40.9828 9.57393 41.3601 9.8569 41.6902C10.5643 42.6334 11.4604 43.388 12.6395 43.9539C14.1958 44.7085 15.8465 45.1329 17.5444 45.3687C19.5723 45.6988 21.6003 45.6988 23.6283 45.6988C25.8921 45.6988 28.1087 45.6045 30.3725 45.3687C32.259 45.1329 34.0983 44.9443 35.8905 44.2369C38.7674 43.105 40.984 41.2186 42.3517 38.3889C42.5875 37.9173 42.7762 37.4457 42.9648 36.9741C44.2854 33.8615 45.3701 30.7017 46.2662 27.4948C46.502 26.5987 46.7378 25.7027 46.9736 24.8066C47.2566 23.7219 47.4924 22.5901 47.7282 21.5054C47.8225 20.8923 47.964 20.3264 48.0583 19.7133C48.2942 18.5343 48.4828 17.3552 48.6243 16.1762C48.7658 15.4217 48.7658 14.7614 48.6243 14.054ZM23.8641 20.7037C24.1942 19.8076 24.5244 18.9115 24.8545 18.0155C24.9488 17.8268 24.996 17.6382 25.0903 17.4496C25.1846 17.2138 25.279 17.0251 25.4205 16.8365C25.6563 16.5063 25.8921 16.2705 26.2222 16.0347C27.0711 15.4217 28.0144 15.0444 29.0048 14.9029C30.7026 14.6671 32.4476 14.6671 34.1455 14.9029C34.8057 14.9972 35.4189 15.1858 35.9848 15.5631C36.0791 15.6103 36.1735 15.7046 36.2206 15.7518C36.5507 16.0347 36.8337 16.412 36.928 16.8836C36.928 16.8836 36.928 16.8836 36.928 16.9308C36.928 16.978 36.928 17.0251 36.9752 17.0723C36.928 17.0251 36.8337 17.0251 36.7866 16.978C36.6922 16.9308 36.5507 16.8836 36.4564 16.8365C35.8433 16.6007 35.183 16.4592 34.5699 16.3177C32.9193 16.0347 31.2214 16.1762 29.5236 16.412C29.2878 16.4592 29.0048 16.5063 28.769 16.6007C28.1559 16.7893 27.5899 17.0723 27.0711 17.4496C26.8825 17.591 26.6938 17.7325 26.5523 17.874C26.2694 18.157 26.0336 18.4871 25.8921 18.9115C25.7506 19.2417 25.6091 19.619 25.5148 19.9491C25.2318 20.6565 24.996 21.3639 24.713 22.0713C23.1567 26.3629 21.8361 30.7489 20.8457 35.2292C20.7042 35.8422 20.6099 36.4553 20.7042 37.2099C20.1854 36.6911 19.9968 36.1252 19.9025 35.5121C19.8081 35.0405 19.9025 34.5217 19.9968 34.0501C20.7514 30.3244 21.8833 26.6931 23.0623 23.1088C23.1095 23.0145 23.1095 22.9674 23.1567 22.873C23.3453 22.1656 23.6283 21.4582 23.8641 20.7037ZM31.8345 34.5217C31.7874 34.6632 31.693 34.8047 31.6459 34.9462C31.6459 34.9462 31.6459 34.9462 31.6459 34.9934C31.3157 36.361 30.3725 37.0684 29.0991 37.54C27.9201 37.9645 26.6938 38.106 25.4676 38.1531C25.2318 38.1531 25.0432 38.1531 24.7602 38.1531C24.43 38.1531 24.0056 38.2003 23.6283 38.2003C23.534 38.2003 23.3925 38.2003 23.2982 38.2003C22.9209 38.2003 22.4964 38.1531 22.1191 38.0116C21.6003 37.823 21.6003 37.823 21.6946 37.3514C21.6946 37.3514 21.6946 37.3514 21.6946 37.3042C22.0248 35.8422 22.3549 34.3803 22.7322 32.9183C23.8169 28.9568 25.1375 25.0424 26.5995 21.1753C26.6467 21.0809 26.6938 20.9395 26.741 20.8451C26.9768 20.2792 27.3541 19.8076 27.8729 19.4303C28.6746 18.8644 29.5236 18.4871 30.4668 18.2985C31.5515 18.1098 32.6834 18.0155 33.7682 18.0627C34.5228 18.0627 35.2774 18.157 36.032 18.2985C36.8337 18.4399 36.8337 18.4399 36.6922 19.2417C35.7018 23.9106 34.2398 28.3909 32.4476 32.824C32.259 33.437 32.0703 33.9558 31.8345 34.5217ZM29.5707 16.4592C29.3349 16.5063 29.0519 16.5535 28.8161 16.6478C28.203 16.8365 27.6371 17.1194 27.1183 17.4967C26.9296 17.6382 26.741 17.7797 26.5995 17.9212C26.3165 18.2041 26.0807 18.5343 25.9392 18.9587C25.7977 19.2888 25.6563 19.6661 25.5619 19.9962C25.7506 19.9019 25.9864 19.8076 26.175 19.7133C29.0519 18.4399 31.8817 17.3081 34.6171 16.3649C32.9193 16.0347 31.2686 16.1762 29.5707 16.4592Z" fill="white"/>
	<path d="M10.6587 43.1047C11.5077 44.1422 12.4509 44.8968 13.5828 45.4156C14.9505 46.0287 16.4125 46.4531 17.8746 46.7361C19.6196 47.019 21.4117 47.1134 23.2039 47.1134C25.7035 47.1134 28.1559 47.1134 30.6084 46.8304C32.6835 46.5946 34.8058 46.4059 36.7395 45.6042C39.0976 44.661 41.0784 43.199 42.4461 41.0768C43.1064 40.0864 43.5308 38.9545 44.0025 37.8699C45.9361 33.2481 47.351 28.4849 48.3414 23.6273C48.7659 21.6937 49.096 19.7601 49.379 17.8265C49.4733 17.1191 49.379 16.4589 49.5205 15.7515C49.9449 16.506 50.275 17.2606 50.3222 18.1095C50.3694 18.6754 50.3222 19.2414 50.2279 19.8073C49.1432 27.07 47.2567 34.097 44.3798 40.8881C42.5876 45.0383 39.4277 47.3963 35.0888 48.2452C32.1647 48.8111 29.1935 49.0469 26.1751 49.0469C24.2886 49.0469 22.355 49.0941 20.4685 48.9055C18.4405 48.7168 16.5069 48.2924 14.6204 47.4906C12.8282 46.7361 11.4605 45.557 10.7059 43.7178C10.7059 43.5291 10.6116 43.3877 10.6587 43.1047Z" fill="white"/>
	<path d="M55.8402 0C54.0952 0 52.6803 1.46198 52.6803 3.30125C52.6803 5.14052 54.0952 6.55534 55.8873 6.55534C57.6323 6.55534 59.0472 5.09336 59.0472 3.25409C59 1.46198 57.5852 0 55.8402 0ZM55.8402 5.98941C54.3781 5.98941 53.1991 4.76323 53.1991 3.30125C53.1991 1.79211 54.3781 0.518768 55.8402 0.565929C57.3022 0.565929 58.4813 1.79211 58.4813 3.30125C58.4813 4.76323 57.3022 6.03657 55.8402 5.98941Z" fill="white"/>
	<path d="M57.0665 4.85742C56.925 4.33865 56.925 3.77272 56.4534 3.39543C56.5949 3.30111 56.642 3.25395 56.6892 3.20679C57.0193 2.92383 57.0665 2.54654 56.9722 2.16925C56.8779 1.74481 56.5477 1.55616 56.1233 1.509C55.7931 1.46184 55.463 1.46184 55.1329 1.509C54.897 1.509 54.8027 1.65049 54.8027 1.88629C54.8027 2.87666 54.8027 3.86704 54.8027 4.85742C54.8027 4.9989 54.8027 5.14038 55.0385 5.14038C55.2272 5.14038 55.2743 5.04606 55.2743 4.85742C55.2743 4.52729 55.2743 4.24433 55.2743 3.9142C55.2743 3.63124 55.4158 3.53691 55.6516 3.58408C56.0761 3.63124 56.2176 3.72556 56.3591 4.15C56.4534 4.43297 56.5006 4.71593 56.5949 4.9989C56.6421 5.18754 56.8307 5.18754 56.9722 5.14038C57.1137 5.09322 57.0665 4.95174 57.0665 4.85742ZM56.3591 2.92383C56.1233 3.20679 55.7931 3.20679 55.4158 3.20679C55.2743 3.20679 55.2743 3.06531 55.2743 2.97099C55.2743 2.73518 55.2743 2.49938 55.2743 2.26358C55.2743 1.83913 55.3215 1.79197 55.746 1.83913C56.0761 1.83913 56.3119 1.93345 56.4534 2.21641C56.5949 2.45222 56.5477 2.68802 56.3591 2.92383Z" fill="white"/>
	<path d="M36.5037 16.8366C35.8906 16.6008 35.2303 16.4593 34.6172 16.3178C31.8818 17.261 29.052 18.3929 26.1751 19.6662C25.9865 19.7605 25.7507 19.8548 25.562 19.9492C25.2791 20.6566 25.0433 21.364 24.7603 22.0714C25.3734 21.7884 26.0337 21.4583 26.6939 21.1753C26.7411 21.081 26.7883 20.9395 26.8354 20.8452C27.0712 20.2793 27.4485 19.8077 27.9673 19.4304C28.7691 18.8645 29.618 18.4872 30.5612 18.2985C31.646 18.1099 32.7779 18.0156 33.8626 18.0627C34.9002 17.6383 35.8906 17.261 36.881 16.9309C36.7395 16.9309 36.598 16.8837 36.5037 16.8366ZM58.6699 14.1484C57.7739 12.1205 53.8122 11.696 48.1056 12.6393C44.7099 13.2052 40.654 14.2427 36.2679 15.7047C36.598 15.9877 36.881 16.365 36.9753 16.8366C36.9753 16.8366 36.9753 16.8366 36.9753 16.8837C41.4086 15.3274 45.3702 14.2427 48.5301 13.724C52.3974 13.1109 55.0385 13.441 55.6516 14.8086C56.4062 16.4593 54.1424 19.3361 49.8034 22.6845C49.3318 23.0146 48.8602 23.3919 48.3414 23.7692C47.917 24.0993 47.4453 24.4294 46.9737 24.7596C43.0592 27.4477 38.06 30.2774 32.4949 32.8712C32.4006 32.9184 32.3062 32.9655 32.2119 33.0127C28.5333 34.7105 24.9961 36.1725 21.6947 37.3515C16.7899 39.0964 12.4509 40.2283 9.19673 40.6056C5.9897 40.9357 3.77307 40.5584 3.20712 39.3322C2.40536 37.6344 4.81064 34.7105 9.24389 31.3149C12.7339 28.6267 17.5445 25.7028 23.1096 22.8731C23.3454 22.1186 23.6284 21.4111 23.8642 20.7037C18.5349 23.2033 13.7715 25.8914 9.90417 28.4853C3.01847 33.107 -0.943156 37.493 0.188739 39.9925C1.03766 41.8789 4.62199 42.3977 9.857 41.6431C13.63 41.1243 18.2519 39.9453 23.2982 38.2004C25.9865 37.3043 28.7691 36.2196 31.5988 34.9934C31.9761 34.852 32.3062 34.6633 32.6835 34.5218C37.7299 32.3053 42.3518 29.8529 46.2663 27.4477C46.7851 27.1176 47.2567 26.8346 47.7283 26.5517C48.2471 26.2215 48.7659 25.8914 49.2375 25.5613C55.9817 20.8924 59.7547 16.6479 58.6699 14.1484ZM26.7883 20.8452C27.0241 20.2793 27.4014 19.8077 27.9202 19.4304C28.7219 18.8645 29.5708 18.4872 30.5141 18.2985C31.5988 18.1099 32.7307 18.0156 33.8154 18.0627C34.853 17.6383 35.8434 17.261 36.8338 16.9309C36.7395 16.8837 36.598 16.8366 36.5037 16.7894C35.8906 16.5536 35.2303 16.4121 34.6172 16.2706C31.8818 17.2138 29.052 18.3457 26.1751 19.619C25.9865 19.7134 25.7507 19.8077 25.562 19.902C25.2791 20.6094 25.0433 21.3168 24.7603 22.0242C25.3734 21.7413 26.0337 21.4111 26.6939 21.1282C26.6939 21.081 26.7411 20.9867 26.7883 20.8452ZM36.5037 16.8366C35.8906 16.6008 35.2303 16.4593 34.6172 16.3178C31.8818 17.261 29.052 18.3929 26.1751 19.6662C25.9865 19.7605 25.7507 19.8548 25.562 19.9492C25.2791 20.6566 25.0433 21.364 24.7603 22.0714C25.3734 21.7884 26.0337 21.4583 26.6939 21.1753C26.7411 21.081 26.7883 20.9395 26.8354 20.8452C27.0712 20.2793 27.4485 19.8077 27.9673 19.4304C28.7691 18.8645 29.618 18.4872 30.5612 18.2985C31.646 18.1099 32.7779 18.0156 33.8626 18.0627C34.9002 17.6383 35.8906 17.261 36.881 16.9309C36.7395 16.9309 36.598 16.8837 36.5037 16.8366Z" fill="white"/>
</svg>